HIERARCHY
ROOT joint_Root
{
	OFFSET 0.0 0.0 0.0
	CHANNELS 6 Xposition Yposition Zposition Zrotation Xrotation Yrotation 
	JOINT Hips
	{
		OFFSET -0.726466 93.3139 -2.00062
		CHANNELS 6 Xposition Yposition Zposition Zrotation Xrotation Yrotation 
		JOINT Spine
		{
			OFFSET 15.7357 0.0 0.0
			CHANNELS 6 Xposition Yposition Zposition Zrotation Xrotation Yrotation 
			JOINT Chest
			{
				OFFSET 8.98455 -0.406207 0.0
				CHANNELS 6 Xposition Yposition Zposition Zrotation Xrotation Yrotation 
				JOINT Neck
				{
					OFFSET 16.3773 0.0 0.0
					CHANNELS 6 Xposition Yposition Zposition Zrotation Xrotation Yrotation 
					JOINT Head
					{
						OFFSET 6.45672 0.0 0.0
						CHANNELS 6 Xposition Yposition Zposition Zrotation Xrotation Yrotation 
						End Site
						{
							OFFSET 0.0 0.0 0.0
						}
					}
				}
				JOINT Shoulder_L
				{
					OFFSET 12.9942 -0.242716 4.98039
					CHANNELS 6 Xposition Yposition Zposition Zrotation Xrotation Yrotation 
					JOINT UpperArm_L
					{
						OFFSET 5.34809 0.0 0.0
						CHANNELS 6 Xposition Yposition Zposition Zrotation Xrotation Yrotation 
						JOINT LowerArm_L
						{
							OFFSET 24.3286 1.87007e-05 0.0
							CHANNELS 6 Xposition Yposition Zposition Zrotation Xrotation Yrotation 
							JOINT Hand_L
							{
								OFFSET 22.2916 0.0 0.0
								CHANNELS 6 Xposition Yposition Zposition Zrotation Xrotation Yrotation 
								End Site
								{
									OFFSET 0.0 0.0 0.0
								}
							}
						}
					}
				}
				JOINT Shoulder_R
				{
					OFFSET 12.9945 -0.242716 -4.98039
					CHANNELS 6 Xposition Yposition Zposition Zrotation Xrotation Yrotation 
					JOINT UpperArm_R
					{
						OFFSET -5.34813 0.0 0.0
						CHANNELS 6 Xposition Yposition Zposition Zrotation Xrotation Yrotation 
						JOINT LowerArm_R
						{
							OFFSET -24.3289 0.000322201 0.0
							CHANNELS 6 Xposition Yposition Zposition Zrotation Xrotation Yrotation 
							JOINT Hand_R
							{
								OFFSET -22.2915 -0.000108084 0.0
								CHANNELS 6 Xposition Yposition Zposition Zrotation Xrotation Yrotation 
								End Site
								{
									OFFSET 0.0 0.0 0.0
								}
							}
						}
					}
				}
			}
		}
		JOINT UpperLeg_L
		{
			OFFSET -2.19248 -6.46944 0.0
			CHANNELS 6 Xposition Yposition Zposition Zrotation Xrotation Yrotation 
			JOINT LowerLeg_L
			{
				OFFSET 39.0811 0.0 -1.23785e-05
				CHANNELS 6 Xposition Yposition Zposition Zrotation Xrotation Yrotation 
				JOINT Foot_L
				{
					OFFSET 40.9854 0.0 -1.26872e-05
					CHANNELS 6 Xposition Yposition Zposition Zrotation Xrotation Yrotation 
					JOINT Toes_L
					{
						OFFSET 11.7543 0.0 0.0
						CHANNELS 6 Xposition Yposition Zposition Zrotation Xrotation Yrotation 
						End Site
						{
							OFFSET 0.0 0.0 0.0
						}
					}
				}
			}
		}
		JOINT UpperLeg_R
		{
			OFFSET -2.19251 6.46944 0.0
			CHANNELS 6 Xposition Yposition Zposition Zrotation Xrotation Yrotation 
			JOINT LowerLeg_R
			{
				OFFSET -39.0811 -0.00228153 -0.0401928
				CHANNELS 6 Xposition Yposition Zposition Zrotation Xrotation Yrotation 
				JOINT Foot_R
				{
					OFFSET -40.9854 0.0 0.0
					CHANNELS 6 Xposition Yposition Zposition Zrotation Xrotation Yrotation 
					JOINT Toes_R
					{
						OFFSET -11.7543 0.0 0.0
						CHANNELS 6 Xposition Yposition Zposition Zrotation Xrotation Yrotation 
						End Site
						{
							OFFSET 0.0 0.0 0.0
						}
					}
				}
			}
		}
	}
}
MOTION
Frames:	9
Frame Time:	0.0333333
0.000000 0.000000 0.000000 0.000000 0.000000 -0.000000 -0.466228 91.760100 -1.244410 87.444400 -3.377400 3.934220 15.735700 0.000005 -0.000001 84.666100 83.202800 -84.093000 8.984550 -0.406207 -0.000000 5.777130 -1.270480 1.208970 16.377300 -0.000001 -0.000001 3.256860 -0.368986 0.767951 6.456720 -0.000001 -0.000000 -0.800811 0.041780 -1.798590 12.994200 -0.242716 4.980390 -89.880500 -0.345598 -70.917600 5.348090 -0.000007 -0.000001 -67.346700 34.422100 -15.476500 24.328600 0.000019 0.000005 3.998670 7.595830 -27.871000 22.291600 -0.000001 0.000005 7.331050 5.644930 -14.549000 12.994500 -0.242716 -4.980390 88.612400 4.289650 -72.055900 -5.348130 -0.000001 -0.000004 -56.813100 33.900100 -18.714000 -24.328900 0.000322 -0.000009 2.555220 4.204640 -31.338300 -22.291500 -0.000108 -0.000004 12.291700 5.665140 -16.688200 -2.192480 -6.469440 -0.000000 -170.202000 -17.998700 -4.304740 39.081100 -0.000007 -0.000012 -0.166431 0.341373 25.991000 40.985400 -0.000006 -0.000013 -5.331940 -1.777080 -65.891100 11.754300 -0.000000 0.000003 -0.000074 -0.000790 -16.608100 -2.192510 6.469440 -0.000001 175.927000 21.548600 176.314000 -39.081100 -0.002282 -0.040193 0.045430 -0.093165 24.326300 -40.985400 0.000008 0.000006 0.700180 3.078140 -64.625200 -11.754300 -0.000006 -0.000006 -0.005064 -0.062079 -19.099000
0.000000 0.000000 0.000000 0.000000 0.000000 -0.000000 -0.473685 91.762900 -1.264340 87.430700 -3.285180 3.985840 15.735700 0.000005 -0.000001 84.576900 83.148600 -83.985100 8.984550 -0.406207 -0.000000 5.883580 -1.301410 1.249190 16.377300 -0.000001 -0.000001 3.101130 -0.454659 0.940163 6.456720 -0.000001 -0.000000 -0.970796 -0.053529 -1.630190 12.994200 -0.242716 4.980390 -89.911200 -0.256516 -70.907600 5.348090 -0.000007 -0.000001 -66.893900 33.536400 -15.748300 24.328600 0.000019 0.000005 4.134100 7.364630 -29.417400 22.291600 -0.000001 0.000005 7.718000 5.650660 -15.078300 12.994500 -0.242716 -4.980390 88.734900 3.909070 -72.050700 -5.348130 -0.000001 -0.000004 -55.364100 37.168500 -18.445900 -24.328900 0.000322 -0.000009 2.506360 3.697200 -34.182100 -22.291500 -0.000108 -0.000004 12.934500 5.667440 -16.999700 -2.192480 -6.469440 -0.000000 -170.178000 -17.881100 -4.289020 39.081100 -0.000007 -0.000012 -0.168379 0.345441 25.986300 40.985400 -0.000006 -0.000013 -5.331150 -1.756340 -65.864900 11.754300 -0.000000 0.000003 -0.000083 -0.000875 -16.611200 -2.192510 6.469440 -0.000001 175.920000 21.597000 176.373000 -39.081100 -0.002282 -0.040193 0.044927 -0.092071 24.321800 -40.985400 0.000008 0.000006 0.687506 3.072250 -64.596400 -11.754300 -0.000006 -0.000006 -0.005072 -0.062162 -19.102400
0.000000 0.000000 0.000000 0.000000 0.000000 -0.000000 -0.493348 91.747500 -1.289810 87.407500 -3.124590 4.065570 15.735700 0.000005 -0.000001 84.705200 83.105300 -84.084200 8.984550 -0.406207 -0.000000 5.972850 -1.278820 1.307370 16.377300 -0.000001 -0.000001 3.031830 -0.505984 1.073260 6.456720 -0.000001 -0.000000 -1.261800 -0.236650 -1.241400 12.994200 -0.242716 4.980390 -89.936800 -0.181389 -70.789900 5.348090 -0.000007 -0.000001 -65.614600 32.420900 -16.672700 24.328600 0.000019 0.000005 4.081180 6.635670 -31.693200 22.291600 -0.000001 0.000005 8.307820 5.655350 -15.548300 12.994500 -0.242716 -4.980390 88.899200 3.379920 -71.948000 -5.348130 -0.000001 -0.000004 -53.671300 40.947300 -17.924700 -24.328900 0.000322 -0.000009 2.472380 3.163010 -38.057500 -22.291500 -0.000108 -0.000004 14.107800 5.670620 -17.477700 -2.192480 -6.469440 -0.000000 -170.134000 -17.858300 -4.327790 39.081100 -0.000007 -0.000012 -0.164291 0.335056 26.120700 40.985400 -0.000006 -0.000013 -5.304080 -1.650870 -65.885800 11.754300 -0.000000 0.000003 -0.000069 -0.000750 -16.606500 -2.192510 6.469440 -0.000001 175.914000 21.705400 176.438000 -39.081100 -0.002282 -0.040193 0.045296 -0.092602 24.387800 -40.985400 0.000008 0.000006 0.667488 3.029520 -64.652600 -11.754300 -0.000006 -0.000006 -0.005089 -0.062324 -19.109000
0.000000 0.000000 0.000000 0.000000 0.000000 -0.000000 -0.525347 91.748600 -1.312630 87.382400 -2.878800 4.104610 15.735700 0.000005 -0.000001 84.910300 83.106400 -84.262700 8.984550 -0.406207 -0.000000 5.975200 -1.230010 1.357830 16.377300 -0.000001 -0.000001 2.993200 -0.610431 1.241370 6.456720 -0.000001 -0.000000 -1.427680 -0.478999 -0.665273 12.994200 -0.242716 4.980390 -89.945000 -0.156581 -70.653200 5.348090 -0.000007 -0.000001 -63.307000 30.935900 -18.371000 24.328600 0.000019 0.000005 4.685350 6.754680 -34.868500 22.291600 -0.000001 0.000005 9.286620 5.660540 -16.118100 12.994500 -0.242716 -4.980390 89.065500 2.848220 -71.827400 -5.348130 -0.000001 -0.000004 -51.988100 44.660100 -16.828700 -24.328900 0.000322 -0.000009 3.277630 3.498680 -43.188400 -22.291500 -0.000108 -0.000004 14.805200 5.672390 -17.771200 -2.192480 -6.469440 -0.000000 -170.089000 -17.700800 -4.359320 39.081100 -0.000007 -0.000012 -0.166159 0.338754 26.128200 40.985400 -0.000006 -0.000013 -5.292420 -1.520920 -65.844300 11.754300 -0.000000 0.000003 -0.000083 -0.000879 -16.611400 -2.192510 6.469440 -0.000001 175.950000 21.830300 176.477000 -39.081100 -0.002282 -0.040193 0.045530 -0.093005 24.414100 -40.985400 0.000008 0.000006 0.700089 2.873990 -64.644300 -11.754300 -0.000006 -0.000006 -0.005090 -0.062337 -19.109500
0.000000 0.000000 0.000000 0.000000 0.000000 -0.000000 -0.579205 91.738800 -1.330470 87.374900 -2.468420 4.238440 15.735700 0.000005 -0.000001 85.018200 83.083900 -84.327200 8.984550 -0.406207 -0.000000 6.022690 -1.208470 1.444040 16.377300 -0.000001 -0.000001 3.020130 -0.704742 1.325020 6.456720 -0.000001 -0.000000 -1.722300 -0.734798 0.032461 12.994200 -0.242716 4.980390 -89.886700 -0.320248 -70.522600 5.348090 -0.000007 -0.000001 -60.336000 28.797600 -20.872400 24.328600 0.000019 0.000005 4.984110 6.316870 -38.401200 22.291600 -0.000001 0.000005 10.977000 5.667380 -16.985400 12.994500 -0.242716 -4.980390 89.267300 2.209060 -71.645700 -5.348130 -0.000001 -0.000004 -50.185500 48.396600 -15.392200 -24.328900 0.000322 -0.000009 5.154610 4.442260 -49.352300 -22.291500 -0.000108 -0.000004 15.284700 5.674200 -18.103700 -2.192480 -6.469440 -0.000000 -170.022000 -17.497000 -4.358340 39.081100 -0.000007 -0.000012 -0.169476 0.344579 26.189800 40.985400 -0.000006 -0.000013 -5.277710 -1.325760 -65.800400 11.754300 -0.000000 0.000003 -0.000082 -0.000865 -16.610900 -2.192510 6.469440 -0.000001 175.908000 21.988500 176.675000 -39.081100 -0.002282 -0.040193 0.044630 -0.091000 24.419500 -40.985400 0.000008 0.000006 0.523367 2.697770 -64.693500 -11.754300 -0.000006 -0.000006 -0.005489 -0.066124 -19.263900
0.000000 0.000000 0.000000 0.000000 0.000000 -0.000000 -0.642429 91.727900 -1.352600 87.318800 -1.950030 4.325800 15.735700 0.000005 -0.000001 84.752700 83.110100 -83.963700 8.984550 -0.406207 -0.000000 5.966420 -1.269270 1.642480 16.377300 -0.000001 -0.000001 3.066290 -0.760774 1.443050 6.456720 -0.000001 -0.000000 -1.974830 -0.806705 0.548378 12.994200 -0.242716 4.980390 -89.786300 -0.602590 -70.470300 5.348090 -0.000007 -0.000001 -57.181300 25.608800 -23.566200 24.328600 0.000019 0.000005 4.857270 5.321070 -42.501800 22.291600 -0.000001 0.000005 12.458000 5.670570 -17.466400 12.994500 -0.242716 -4.980390 89.538500 1.372440 -71.410700 -5.348130 -0.000001 -0.000004 -48.321000 52.213100 -13.854800 -24.328900 0.000322 -0.000009 7.181280 4.892620 -55.907100 -22.291500 -0.000108 -0.000004 15.450800 5.677570 -18.849400 -2.192480 -6.469440 -0.000000 -169.935000 -17.231400 -4.468330 39.081100 -0.000007 -0.000012 -0.167252 0.338350 26.304200 40.985400 -0.000006 -0.000013 -5.237620 -1.038280 -65.761200 11.754300 -0.000000 0.000003 -0.000086 -0.000901 -16.612200 -2.192510 6.469440 -0.000001 175.974000 22.238400 176.809000 -39.081100 -0.002282 -0.040193 0.046379 -0.094696 24.455100 -40.985400 0.000008 0.000006 0.644518 2.371860 -64.796600 -11.754300 -0.000006 -0.000006 -0.005250 -0.063868 -19.171900
0.000000 0.000000 0.000000 0.000000 0.000000 -0.000000 -0.707770 91.723300 -1.371760 87.309000 -1.384370 4.443260 15.735700 0.000005 -0.000001 84.262100 83.161900 -83.376000 8.984550 -0.406207 -0.000000 5.854320 -1.378580 1.840790 16.377300 -0.000001 -0.000001 3.095710 -0.825310 1.524480 6.456720 -0.000001 -0.000000 -2.152430 -0.783500 1.139410 12.994200 -0.242716 4.980390 -89.622100 -1.069210 -70.532300 5.348090 -0.000007 -0.000001 -54.203100 21.349000 -26.247700 24.328600 0.000019 0.000005 4.845180 4.522110 -47.074300 22.291600 -0.000001 0.000005 14.149600 5.672800 -17.840500 12.994500 -0.242716 -4.980390 89.807200 0.565396 -71.168500 -5.348130 -0.000001 -0.000004 -46.758500 55.657700 -11.772200 -24.328900 0.000322 -0.000009 9.799610 5.118550 -62.682600 -22.291500 -0.000108 -0.000004 15.130300 5.680570 -19.831600 -2.192480 -6.469440 -0.000000 -169.872000 -17.031100 -4.507700 39.081100 -0.000007 -0.000012 -0.167862 0.339041 26.340600 40.985400 -0.000006 -0.000013 -5.181200 -0.677530 -65.678700 11.754300 -0.000000 0.000003 -0.000077 -0.000822 -16.609300 -2.192510 6.469440 -0.000001 175.943000 22.599400 177.003000 -39.081100 -0.002282 -0.040193 0.045516 -0.092797 24.455600 -40.985400 0.000008 0.000006 0.576869 2.148390 -64.850400 -11.754300 -0.000006 -0.000006 -0.004930 -0.060791 -19.046500
0.000000 0.000000 0.000000 0.000000 0.000000 -0.000000 -0.768442 91.716700 -1.369760 87.293500 -0.861824 4.524690 15.735700 0.000005 -0.000001 83.627900 83.233200 -82.613700 8.984550 -0.406207 -0.000000 5.699760 -1.516620 2.101640 16.377300 -0.000001 -0.000001 3.074970 -0.865781 1.598320 6.456720 -0.000001 -0.000000 -2.430750 -0.642478 1.600640 12.994200 -0.242716 4.980390 -89.404200 -1.685250 -70.527100 5.348090 -0.000007 -0.000001 -51.244700 16.508000 -29.131600 24.328600 0.000019 0.000005 4.289290 3.382530 -51.810900 22.291600 -0.000001 0.000005 15.693600 5.674230 -18.106400 12.994500 -0.242716 -4.980390 90.106500 -0.306548 -70.837900 -5.348130 -0.000001 -0.000004 -45.775600 58.612200 -9.262290 -24.328900 0.000322 -0.000009 12.866200 4.926570 -69.393200 -22.291500 -0.000108 -0.000004 14.336500 5.681010 -20.041200 -2.192480 -6.469440 -0.000000 -169.826000 -16.803800 -4.576890 39.081100 -0.000007 -0.000012 -0.163306 0.329122 26.390300 40.985400 -0.000006 -0.000013 -5.139960 -0.379841 -65.620600 11.754300 -0.000000 0.000003 -0.000077 -0.000820 -16.609200 -2.192510 6.469440 -0.000001 175.924000 22.925400 177.151000 -39.081100 -0.002282 -0.040193 0.046888 -0.095611 24.501200 -40.985400 0.000008 0.000006 0.632173 1.979130 -64.924500 -11.754300 -0.000006 -0.000006 -0.005325 -0.064573 -19.200700
0.000000 0.000000 0.000000 0.000000 0.000000 -0.000000 -0.760005 91.728200 -1.362330 87.066500 -0.539169 4.809570 15.735700 0.000005 -0.000001 83.409800 83.231100 -82.185000 8.984550 -0.406207 -0.000000 5.701890 -1.571900 2.525180 16.377300 -0.000001 -0.000001 2.865330 -0.878702 1.717110 6.456720 -0.000001 -0.000000 -2.663650 -0.444650 1.962040 12.994200 -0.242716 4.980390 -89.199500 -2.263680 -70.518400 5.348090 -0.000007 -0.000001 -48.506000 10.717200 -32.111400 24.328600 0.000019 0.000005 3.664140 2.421980 -56.581600 22.291600 -0.000001 0.000005 16.302400 5.675040 -18.269400 12.994500 -0.242716 -4.980390 90.403200 -1.146120 -70.615500 -5.348130 -0.000001 -0.000004 -45.577900 61.097000 -6.194460 -24.328900 0.000322 -0.000009 16.609400 4.411990 -75.538200 -22.291500 -0.000108 -0.000004 15.192600 5.682100 -21.152000 -2.192480 -6.469440 -0.000000 -169.528000 -16.588800 -4.379820 39.081100 -0.000007 -0.000012 -0.163246 0.327854 26.470000 40.985400 -0.000006 -0.000013 -5.094930 -0.172691 -65.641300 11.754300 -0.000000 0.000003 -0.000079 -0.000845 -16.610100 -2.192510 6.469440 -0.000001 175.973000 23.299100 177.553000 -39.081100 -0.002282 -0.040193 0.045542 -0.093030 24.414800 -40.985400 0.000008 0.000006 0.640862 1.995930 -64.719300 -11.754300 -0.000006 -0.000006 -0.005330 -0.064621 -19.202600
